<svg xmlns="http://www.w3.org/2000/svg" width="500" height="520"><rect x="27.824" y="104.018" fill="#fff" width="14.352" height="1.964"/><rect x="27.824" y="98.646" fill="#fff" width="14.352" height="1.964"/><rect x="27.824" y="109.39" fill="#fff" width="14.352" height="1.964"/><path fill="#fff" d="M86.426 36.566h-14.852c-.557 0-1.007.451-1.007 1.007v14.853c0 .555.451 1.007 1.007 1.007h14.853c.555 0 1.006-.452 1.006-1.007v-14.852c0-.557-.451-1.008-1.007-1.008zm-9.578 6.48c.527-.598 1.295-.976 2.152-.976.855 0 1.624.378 2.152.976.447.506.72 1.169.72 1.896 0 1.584-1.288 2.874-2.87 2.874-1.584 0-2.873-1.289-2.873-2.874-.001-.726.271-1.388.719-1.896zm8.809 8.611h-13.314v-8.609h2.417c-.26.579-.41 1.221-.41 1.896 0 2.562 2.085 4.648 4.65 4.648s4.648-2.083 4.648-4.648c0-.675-.148-1.317-.41-1.896h2.419v8.609zm0-11.446c0 .448-.363.81-.811.81h-1.058c-.449 0-.811-.362-.811-.81v-1.06c0-.447.362-.81.811-.81h1.058c.447 0 .811.363.811.81v1.06z"/><path fill="#fff" d="M83.75 21.422h-2.713c-.321 0-.679.422-.679.987v1.959h3.392v2.792h-3.394v8.388h-3.203v-8.388h-2.903v-2.793h2.904v-1.644c0-2.358 1.637-4.275 3.883-4.275h2.713v2.974z"/><path fill="#fff" d="M87.549 3.699c-.631.277-1.306.466-2.015.551.725-.434 1.281-1.121 1.543-1.941-.679.403-1.43.692-2.228.851-.643-.68-1.554-1.107-2.561-1.107-1.939 0-3.509 1.571-3.509 3.51 0 .274.031.542.091.798-2.915-.146-5.501-1.543-7.231-3.665-.3.519-.477 1.121-.477 1.762 0 1.217.622 2.292 1.563 2.921-.574-.02-1.115-.177-1.59-.44v.044c0 1.699 1.208 3.116 2.813 3.439-.293.08-.602.122-.924.122-.225 0-.445-.02-.66-.061.448 1.395 1.742 2.407 3.277 2.435-1.2.942-2.712 1.504-4.357 1.504-.283 0-.561-.019-.835-.051 1.552.998 3.396 1.576 5.379 1.576 6.451 0 9.979-5.346 9.979-9.98l-.009-.455c.686-.494 1.28-1.111 1.751-1.813z"/><g fill="#fff"><path d="M94.742 13.208c-1.906 1.968-3.026 4.8-3.026 8.049h1.709c0-3.55 1.501-6.523 3.985-8.049h-2.668zM103.589 13.208c2.483 1.526 3.985 4.499 3.985 8.049h1.709c0-3.249-1.12-6.081-3.026-8.049h-2.668zM100.571 2.864c-2.174 0-3.943 1.769-3.943 3.944v1.988c0 2.174 1.769 3.943 3.942 3.943 2.175 0 3.945-1.769 3.945-3.943v-1.988c0-2.175-1.769-3.944-3.944-3.944zm2.235 5.694v.238c0 1.232-1.003 2.234-2.236 2.234-1.231 0-2.233-1.002-2.233-2.234v-1.988c0-1.232 1.002-2.235 2.234-2.235s2.235 1.002 2.235 2.235v1.75z"/></g><path fill="#fff" d="M109.047 215.999h-2.737l-.707-.293-2.37-2.37-.293-.707v-.938l.29-.704.305-.308v-1.033l.293-.707 1.75-1.75-.438-.181-1.715-1.714-.293-.708v-1.237l.292-.706.542-.544-.111-.112-.291-.705v-2.138l.291-.705.646-.65.709-.295h3.451v-1.654l.293-.707 2.84-2.839.707-.293h4.77l.707.293 2.788 2.788.293.708-.001 3.125-.293.707-1.933 1.933.105.105.293.707v6.088l-.289.703-.626.633v1.151l-.295.709-.427.424-.705.291h-2.738l-1.2 1.198-.707.292h-.637l-1.854 1.852-.705.291zm-2.323-2h1.909l1.854-1.852.707-.292h.638l1.2-1.198.707-.292h2.578v-.986l.289-.703.626-.633v-5.263l-.519-.519v-1.414l2.347-2.348.001-2.296-2.202-2.202h-3.942l-2.254 2.253v1.18l.353.353-.707 1.707h-4.681l-.062.062v1.313l.521.525-.001 1.41-.953.957v.409l1.129 1.128h1.621l.707 1.707-3.054 3.053v1.031l-.29.704-.305.308v.112l1.783 1.786z"/><polygon fill="#fff" points="120.51,163.07 120.51,165.07 123.714,165.07 123.712,161.548 114.104,156.413 112.202,157.664 121.713,162.748 121.713,163.07"/><path fill="#fff" d="M103.479 165.068h-3.194v-3.46l12.793-8.387c.619-.436.746-.864.746-1.45 0-1.03-.836-1.867-1.863-1.867-1.033 0-1.874.837-1.874 1.867h-2c0-2.132 1.738-3.867 3.874-3.867 2.13 0 3.863 1.735 3.863 3.867 0 .843-.168 2.083-1.623 3.104l-11.917 7.812v.38h1.194v2.001z"/><polygon fill="#fff" points="118.959,172.096 104.993,172.096 104.993,162.476 106.993,162.476 106.993,170.096 116.959,170.096 116.958,162.476 118.958,162.476"/><polygon fill="#020202" points="105.536,246.158 110.25,240.528 114.965,246.158 117.388,246.158 117.47,246.09 110.25,237.468 103.032,246.09 103.114,246.158"/><rect x="109.269" y="247.17" fill="#020202" width="1.964" height="12.832"/><rect x="107.429" y="121.355" fill="#fff" width="9.141" height="2"/><polygon fill="#fff" points="113,122.355 111,122.355 111,115.733 108.502,115.733 108.502,113.733 113,113.733"/><rect x="111" y="109.645" fill="#fff" width="2" height="2.55"/><path fill="#fff" d="M112.999 80.792h-2l.001-17.584h2l-.001 17.584zm7.793-7.792h-5.22v-2h5.22v2zm-12.364 0h-5.22v-2h5.22v2z"/><path fill="#fff" d="M29.489 41.923l-1.414-1.414 12.435-12.433 1.414 1.414-12.435 12.433zm11.02 0l-3.691-3.691 1.414-1.414 3.691 3.691-1.414 1.414zm-8.742-8.742l-3.691-3.691 1.414-1.414 3.691 3.691-1.414 1.414z"/><path fill="#fff" d="M104.887 35.421h-1.709v-2.694c0-1.478-1.202-2.68-2.679-2.68-1.478 0-2.68 1.202-2.68 2.68v2.694h-1.709v-2.694c0-2.42 1.969-4.389 4.389-4.389 2.419 0 4.388 1.969 4.388 4.389v2.694zm4.564.001l-3.978 9.451h-9.946l-3.979-9.451h-1.854l4.699 11.16h12.216l4.697-11.16h-1.855z"/></svg>