<svg xmlns="http://www.w3.org/2000/svg" width="220" height="760"><g fill="#010101"><path d="M116.049 63.527c0 2.672-1.92 4.057-5.563 4.057h-7.287v-1.773h1.895l.753-.753v-8.793l-.753-.753h-1.895v-1.773h7.021c3.425 0 5.222 1.336 5.222 3.765 0 1.288-.801 2.429-2.355 2.769 1.577.145 2.962 1.724 2.962 3.254zm-2.623-6.024c0-1.263-.996-1.992-3.28-1.992h-2.405v4.033h2.405c2.284-.001 3.28-.753 3.28-2.041zm-5.685 8.308h2.696c2.502 0 3.596-.85 3.596-2.283s-1.094-2.284-3.596-2.284h-2.696v4.567zM110 104.878c-3.887 0-6.341-3.207-6.341-7.264 0-4.081 2.454-7.263 6.341-7.263 3.886 0 6.365 3.182 6.365 7.263 0 4.057-2.478 7.264-6.365 7.264zm0-12.607c-2.794 0-4.203 2.405-4.203 5.344s1.409 5.32 4.203 5.32c2.792 0 4.226-2.381 4.226-5.32s-1.433-5.344-4.226-5.344zM112.818 141.492l-5.782-11.271v8.745l.753.753h1.166v1.773h-5.685v-1.773h1.19l.753-.753v-8.794l-.753-.753h-1.19v-1.772h4.567l5.15 10.42v-7.895l-.754-.753h-1.189v-1.772h5.684v1.772h-1.166l-.752.753v11.32h-1.992zM108.591 178.446h-5.806v-1.773h1.506l4.566-12.073h2.285l4.566 12.073h1.506v1.773h-5.951v-1.773h1.385l.729-.606-.826-2.236h-5.271l-.802 2.236.729.606h1.385v1.773zm1.312-11.854l-1.968 5.466h3.985l-2.017-5.466zM105.701 208.453c0 2.914 1.433 5.344 4.251 5.344 1.433 0 2.55-.973 3.498-2.09v-1.141l-.533-.584h-1.822v-1.773h5.732v1.773h-.875l-.68.705v4.713h-1.822v-1.045l-.34-.243c-.947 1.166-2.332 1.628-3.474 1.628-3.668 0-6.097-3.23-6.097-7.287 0-4.058 2.429-7.24 6.34-7.24 1.239 0 2.477.584 3.133 1.434l.34-.146v-.948h1.799v4.664h-1.434c-.631-1.725-1.967-3.084-3.765-3.084-2.842 0-4.251 2.381-4.251 5.32zM103.271 252.354v-1.773h1.118l.753-.754v-8.793l-.753-.754h-1.118v-1.772h6.413c3.667 0 5.539 1.359 5.539 3.911 0 2.186-1.336 3.473-4.008 3.813l3.4 4.275h2.139v1.847h-4.615v-1.773l-3.281-4.252h-1.846v3.498l.753.754h1.652v1.773h-6.146zm3.741-7.798h2.623c2.503 0 3.498-.777 3.498-2.137 0-1.361-.994-2.139-3.498-2.139h-2.623v4.276zM113.279 287.534l.754-.752v-2.502h1.846v5.027h-12.68v-1.773h1.895l.753-.752v-8.795l-.753-.752h-1.895v-1.773h12.583v5.15h-1.846v-2.625l-.754-.752h-5.441v4.227h2.017l.753-.754v-1.48h1.554v6.072h-1.554v-1.457l-.753-.754h-2.017v4.445h5.538zM112.623 324.489h.51l.973-9.693-.486-.607h-2.137v-1.773h5.781v1.773h-1.215l-1.336 12.074h-3.328l-1.336-8.648-1.312 8.648h-3.449l-1.336-12.074h-1.215v-1.773h5.903v1.773h-2.138l-.486.607.972 9.693h.511l1.238-8.527h2.648l1.238 8.527z"/></g><g fill="#fff"><path d="M116.049 443.527c0 2.672-1.92 4.057-5.563 4.057h-7.287v-1.773h1.895l.753-.753v-8.794l-.753-.753h-1.895v-1.772h7.021c3.425 0 5.222 1.336 5.222 3.765 0 1.288-.801 2.429-2.355 2.769 1.577.145 2.962 1.723 2.962 3.254zm-2.623-6.024c0-1.263-.996-1.992-3.28-1.992h-2.405v4.032h2.405c2.284 0 3.28-.752 3.28-2.04zm-5.685 8.308h2.696c2.502 0 3.596-.85 3.596-2.283s-1.094-2.283-3.596-2.283h-2.696v4.566zM110 484.879c-3.887 0-6.341-3.207-6.341-7.264 0-4.082 2.454-7.264 6.341-7.264 3.886 0 6.365 3.182 6.365 7.264 0 4.057-2.478 7.264-6.365 7.264zm0-12.608c-2.794 0-4.203 2.405-4.203 5.345s1.409 5.32 4.203 5.32c2.792 0 4.226-2.381 4.226-5.32s-1.433-5.345-4.226-5.345zM112.818 521.492l-5.782-11.271v8.745l.753.753h1.166v1.773h-5.685v-1.773h1.19l.753-.753v-8.794l-.753-.753h-1.19v-1.772h4.567l5.15 10.42v-7.895l-.754-.753h-1.189v-1.772h5.684v1.772h-1.166l-.752.753v11.32h-1.992zM108.591 558.446h-5.806v-1.773h1.506l4.566-12.073h2.285l4.566 12.073h1.506v1.773h-5.951v-1.773h1.385l.729-.606-.826-2.236h-5.271l-.802 2.236.729.606h1.385v1.773zm1.312-11.854l-1.968 5.466h3.985l-2.017-5.466zM105.701 588.453c0 2.914 1.433 5.344 4.251 5.344 1.433 0 2.55-.973 3.498-2.09v-1.141l-.533-.584h-1.822v-1.773h5.732v1.773h-.875l-.68.705v4.713h-1.822v-1.045l-.34-.243c-.947 1.166-2.332 1.628-3.474 1.628-3.668 0-6.097-3.23-6.097-7.287 0-4.058 2.429-7.24 6.34-7.24 1.239 0 2.477.584 3.133 1.434l.34-.146v-.948h1.799v4.664h-1.434c-.631-1.725-1.967-3.084-3.765-3.084-2.842 0-4.251 2.381-4.251 5.32zM103.271 632.354v-1.773h1.118l.753-.754v-8.793l-.753-.754h-1.118v-1.772h6.413c3.667 0 5.539 1.359 5.539 3.911 0 2.186-1.336 3.473-4.008 3.813l3.4 4.275h2.139v1.847h-4.615v-1.773l-3.281-4.252h-1.846v3.498l.753.754h1.652v1.773h-6.146zm3.741-7.798h2.623c2.503 0 3.498-.777 3.498-2.137 0-1.361-.994-2.139-3.498-2.139h-2.623v4.276zM113.279 667.534l.754-.752v-2.502h1.846v5.027h-12.68v-1.773h1.895l.753-.752v-8.795l-.753-.752h-1.895v-1.773h12.583v5.15h-1.846v-2.625l-.754-.752h-5.441v4.227h2.017l.753-.754v-1.48h1.554v6.072h-1.554v-1.457l-.753-.754h-2.017v4.445h5.538zM112.623 704.489h.51l.973-9.693-.486-.607h-2.137v-1.773h5.781v1.773h-1.215l-1.336 12.074h-3.328l-1.336-8.648-1.312 8.648h-3.449l-1.336-12.074h-1.215v-1.773h5.903v1.773h-2.138l-.486.607.972 9.693h.511l1.238-8.527h2.648l1.238 8.527z"/></g></svg>