<svg xmlns="http://www.w3.org/2000/svg" width="500" height="520"><defs><filter id="a" filterUnits="userSpaceOnUse" x="28.089" y="28.089" width="13.821" height="13.822"><feColorMatrix values="-1 0 0 0 1 0 -1 0 0 1 0 0 -1 0 1 0 0 0 1 0" color-interpolation-filters="sRGB" result="source"/><feFlood result="back" flood-color="#fff" flood-opacity="1"/><feBlend in="source" in2="back"/></filter></defs><mask maskUnits="userSpaceOnUse" x="28.089" y="28.089" width="13.821" height="13.822" id="b"><polygon fill="#fff" points="31.179,43.75 43.763,31.179 38.824,26.247 26.238,38.819" filter="url(#a)"/></mask><line stroke="#fff" stroke-width="1.964" stroke-miterlimit="10" x1="28.783" y1="28.783" x2="41.216" y2="41.217" fill="none" mask="url(#b)"/><line stroke="#fff" stroke-width="1.964" stroke-miterlimit="10" x1="28.783" y1="41.216" x2="41.217" y2="28.783" fill="none"/><line stroke="#fff" stroke-width="1.964" stroke-miterlimit="10" x1="28.783" y1="41.216" x2="41.217" y2="28.783" fill="none"/><g stroke="#fff" stroke-width="1.964" stroke-miterlimit="10" fill="none"><line x1="27.824" y1="105" x2="42.176" y2="105"/><line x1="27.824" y1="99.628" x2="42.176" y2="99.628"/><line x1="27.824" y1="110.372" x2="42.176" y2="110.372"/></g><path fill="#fff" d="M86.426 36.566h-14.852c-.557 0-1.007.451-1.007 1.007v14.853c0 .555.451 1.007 1.007 1.007h14.853c.555 0 1.006-.452 1.006-1.007v-14.852c0-.557-.451-1.008-1.007-1.008zm-9.578 6.48c.527-.598 1.295-.976 2.152-.976.855 0 1.624.378 2.152.976.447.506.72 1.169.72 1.896 0 1.584-1.288 2.874-2.87 2.874-1.584 0-2.873-1.289-2.873-2.874-.001-.726.271-1.388.719-1.896zm8.809 8.611h-13.314v-8.609h2.417c-.26.579-.41 1.221-.41 1.896 0 2.562 2.085 4.648 4.65 4.648s4.648-2.083 4.648-4.648c0-.675-.148-1.317-.41-1.896h2.419v8.609zm0-11.446c0 .448-.363.81-.811.81h-1.058c-.449 0-.811-.362-.811-.81v-1.06c0-.447.362-.81.811-.81h1.058c.447 0 .811.363.811.81v1.06z"/><path fill="#fff" d="M83.75 21.422h-2.713c-.321 0-.679.422-.679.987v1.959h3.392v2.792h-3.394v8.388h-3.203v-8.388h-2.903v-2.793h2.904v-1.644c0-2.358 1.637-4.275 3.883-4.275h2.713v2.974z"/><path fill="#fff" d="M87.549 3.699c-.631.277-1.306.466-2.015.551.725-.434 1.281-1.121 1.543-1.941-.679.403-1.43.692-2.228.851-.643-.68-1.554-1.107-2.561-1.107-1.939 0-3.509 1.571-3.509 3.51 0 .274.031.542.091.798-2.915-.146-5.501-1.543-7.231-3.665-.3.519-.477 1.121-.477 1.762 0 1.217.622 2.292 1.563 2.921-.574-.02-1.115-.177-1.59-.44v.044c0 1.699 1.208 3.116 2.813 3.439-.293.08-.602.122-.924.122-.225 0-.445-.02-.66-.061.448 1.395 1.742 2.407 3.277 2.435-1.2.942-2.712 1.504-4.357 1.504-.283 0-.561-.019-.835-.051 1.552.998 3.396 1.576 5.379 1.576 6.451 0 9.979-5.346 9.979-9.98l-.009-.455c.686-.494 1.28-1.111 1.751-1.813z"/><defs><filter id="c" filterUnits="userSpaceOnUse" x="89.426" y="34.12" width="22.147" height="12.461"><feColorMatrix values="-1 0 0 0 1 0 -1 0 0 1 0 0 -1 0 1 0 0 0 1 0" color-interpolation-filters="sRGB" result="source"/><feFlood result="back" flood-color="#fff" flood-opacity="1"/><feBlend in="source" in2="back"/></filter></defs><mask maskUnits="userSpaceOnUse" x="89.426" y="34.12" width="22.147" height="12.461" id="d"><rect x="88.43" y="26.749" fill="#fff" width="24.14" height="8.673" filter="url(#c)"/></mask><polyline mask="url(#d)" stroke="#fff" stroke-width="1.709" stroke-miterlimit="10" points="110.786,34.452 106.041,45.727 94.96,45.727 90.213,34.452" fill="none"/><path stroke="#fff" stroke-width="1.709" stroke-miterlimit="10" d="M96.965 35.421v-2.694c0-1.952 1.582-3.534 3.534-3.534 1.951 0 3.533 1.583 3.533 3.534v2.694" fill="none"/><defs><filter id="e" filterUnits="userSpaceOnUse" x="91.717" y="11.081" width="17.565" height="10.176"><feColorMatrix values="-1 0 0 0 1 0 -1 0 0 1 0 0 -1 0 1 0 0 0 1 0" color-interpolation-filters="sRGB" result="source"/><feFlood result="back" flood-color="#fff" flood-opacity="1"/><feBlend in="source" in2="back"/></filter></defs><mask maskUnits="userSpaceOnUse" x="91.717" y="11.081" width="17.565" height="10.176" id="f"><rect x="90.819" y="-.764" fill="#fff" width="19.503" height="13.972" filter="url(#e)"/></mask><g mask="url(#f)" stroke="#fff" stroke-width="1.709" stroke-miterlimit="10" fill="none"><path d="M92.571 21.257c0-4.111 1.959-7.91 5.581-9.384"/><path d="M108.428 21.257c0-4.111-1.959-7.91-5.581-9.384"/></g><path stroke="#fff" stroke-width="1.709" stroke-miterlimit="10" d="M97.482 8.796v-1.988c0-1.706 1.383-3.089 3.089-3.089s3.089 1.383 3.089 3.089v1.75" fill="none"/><path stroke="#fff" stroke-width="1.709" stroke-miterlimit="10" d="M103.66 8.315v.481c0 1.706-1.383 3.089-3.09 3.089-1.705 0-3.088-1.383-3.088-3.089v-.763" fill="none"/><defs><filter id="g" filterUnits="userSpaceOnUse" x="103.208" y="71" width="17.584" height="2.001"><feColorMatrix values="-1 0 0 0 1 0 -1 0 0 1 0 0 -1 0 1 0 0 0 1 0" color-interpolation-filters="sRGB" result="source"/><feFlood result="back" flood-color="#fff" flood-opacity="1"/><feBlend in="source" in2="back"/></filter></defs><mask maskUnits="userSpaceOnUse" x="103.208" y="71" width="17.584" height="2.001" id="h"><polygon fill="#fff" points="115.485,80.812 115.488,63.089 108.539,63.095 108.533,80.816" filter="url(#g)"/></mask><line stroke="#fff" stroke-width="2" stroke-miterlimit="10" x1="103.208" y1="72" x2="120.792" y2="72" fill="none" mask="url(#h)"/><line stroke="#fff" stroke-width="2" stroke-miterlimit="10" x1="111.999" y1="80.792" x2="112" y2="63.208" fill="none"/><path stroke="#fff" stroke-width="2" stroke-linejoin="bevel" stroke-miterlimit="10" d="M120.059 195.789l-2.788-2.788h-4.77l-2.84 2.839v2.008l.646.646h-5.097l-.646.65v2.138l.812.818-1.244 1.249v1.237l1.715 1.714h2.035l-3.347 3.346v1.445l-.595.6v.938l2.37 2.37h2.737l2.146-2.144h1.051l1.493-1.49h3.151l.427-.424v-1.562l.915-.925v-6.088l-.812-.812 2.64-2.64v-3.126h.001z" fill="none"/><defs><filter id="i" filterUnits="userSpaceOnUse" x="111.49" y="155.52" width="12.225" height="9.551"><feColorMatrix values="-1 0 0 0 1 0 -1 0 0 1 0 0 -1 0 1 0 0 0 1 0" color-interpolation-filters="sRGB" result="source"/><feFlood result="back" flood-color="#fff" flood-opacity="1"/><feBlend in="source" in2="back"/></filter></defs><mask maskUnits="userSpaceOnUse" x="111.49" y="155.52" width="12.225" height="9.551" id="j"><polygon fill="#fff" points="110.893,158.524 110.127,157.413 113.478,155.199 114.253,156.315" filter="url(#i)"/></mask><polyline mask="url(#j)" stroke="#fff" stroke-width="2" stroke-miterlimit="10" points="111.961,156.401 122.713,162.148 122.714,164.07 120.51,164.07" fill="none"/><path stroke="#fff" stroke-width="2" stroke-miterlimit="10" d="M109.087 151.771c0-1.583 1.285-2.867 2.874-2.867 1.584 0 2.863 1.284 2.863 2.867 0 .837-.23 1.607-1.197 2.286l-12.342 8.091v1.92h2.194" fill="none"/><polyline stroke="#fff" stroke-width="2" stroke-miterlimit="10" points="117.958,162.476 117.959,171.096 105.993,171.096 105.993,162.476" fill="none"/><defs><filter id="k" filterUnits="userSpaceOnUse" x="103.032" y="237.469" width="14.438" height="9.882"><feColorMatrix values="-1 0 0 0 1 0 -1 0 0 1 0 0 -1 0 1 0 0 0 1 0" color-interpolation-filters="sRGB" result="source"/><feFlood result="back" flood-color="#fff" flood-opacity="1"/><feBlend in="source" in2="back"/></filter></defs><mask maskUnits="userSpaceOnUse" x="103.032" y="237.469" width="14.438" height="9.882" id="l"><rect x="101.203" y="246.158" fill="#fff" width="17.779" height="8.198" filter="url(#k)"/></mask><polyline mask="url(#l)" stroke="#020202" stroke-width="1.964" stroke-miterlimit="10" points="103.785,246.72 110.25,238.998 116.717,246.72" fill="none"/><line stroke="#020202" stroke-width="1.964" stroke-miterlimit="10" x1="110.251" y1="247.17" x2="110.251" y2="260.002" fill="none"/><g stroke="#fff" stroke-width="2" stroke-miterlimit="10" fill="none"><line x1="107.429" y1="122.355" x2="116.57" y2="122.355"/><polyline points="108.502,114.733 112,114.733 112,122.355"/><line x1="112" y1="112.195" x2="112" y2="109.645"/></g></svg>