<?xml version="1.0" encoding="utf-8"?>
<!-- Generator: Adobe Illustrator 16.0.0, SVG Export Plug-In . SVG Version: 6.00 Build 0)  -->
<!DOCTYPE svg PUBLIC "-//W3C//DTD SVG 1.1//EN" "http://www.w3.org/Graphics/SVG/1.1/DTD/svg11.dtd">
<svg version="1.1" id="Layer_1" xmlns="http://www.w3.org/2000/svg" xmlns:xlink="http://www.w3.org/1999/xlink" x="0px" y="0px"
	 width="220px" height="760px" viewBox="0 0 220 760" enable-background="new 0 0 220 760" xml:space="preserve">
<g>
	<g>
		<path fill="#010101" d="M116.049,63.527c0,2.672-1.92,4.057-5.563,4.057h-7.287v-1.773h1.895l0.753-0.753v-8.793l-0.753-0.753
			h-1.895v-1.773h7.021c3.425,0,5.222,1.336,5.222,3.765c0,1.288-0.801,2.429-2.355,2.769
			C114.664,60.418,116.049,61.997,116.049,63.527z M113.426,57.503c0-1.263-0.996-1.992-3.28-1.992h-2.405v4.033h2.405
			C112.43,59.543,113.426,58.791,113.426,57.503z M107.741,65.811h2.696c2.502,0,3.596-0.85,3.596-2.283s-1.094-2.284-3.596-2.284
			h-2.696V65.811z"/>
		<path fill="#010101" d="M110,104.878c-3.887,0-6.341-3.207-6.341-7.264c0-4.081,2.454-7.263,6.341-7.263
			c3.886,0,6.365,3.182,6.365,7.263C116.365,101.671,113.887,104.878,110,104.878z M110,92.271c-2.794,0-4.203,2.405-4.203,5.344
			s1.409,5.32,4.203,5.32c2.792,0,4.226-2.381,4.226-5.32S112.793,92.271,110,92.271z"/>
		<path fill="#010101" d="M112.818,141.492l-5.782-11.271v8.745l0.753,0.753h1.166v1.773h-5.685v-1.773h1.19l0.753-0.753v-8.794
			l-0.753-0.753h-1.19v-1.772h4.567l5.15,10.42v-7.895l-0.754-0.753h-1.189v-1.772h5.684v1.772h-1.166l-0.752,0.753v11.32H112.818z"
			/>
		<path fill="#010101" d="M108.591,178.446h-5.806v-1.773h1.506l4.566-12.073h2.285l4.566,12.073h1.506v1.773h-5.951v-1.773h1.385
			l0.729-0.606l-0.826-2.236h-5.271l-0.802,2.236l0.729,0.606h1.385V178.446z M109.903,166.592l-1.968,5.466h3.985L109.903,166.592z
			"/>
		<path fill="#010101" d="M105.701,208.453c0,2.914,1.433,5.344,4.251,5.344c1.433,0,2.55-0.973,3.498-2.09v-1.141l-0.533-0.584
			h-1.822v-1.773h5.732v1.773h-0.875l-0.68,0.705v4.713h-1.822v-1.045l-0.34-0.243c-0.947,1.166-2.332,1.628-3.474,1.628
			c-3.668,0-6.097-3.23-6.097-7.287c0-4.058,2.429-7.24,6.34-7.24c1.239,0,2.477,0.584,3.133,1.434l0.34-0.146v-0.948h1.799v4.664
			h-1.434c-0.631-1.725-1.967-3.084-3.765-3.084C107.11,203.133,105.701,205.514,105.701,208.453z"/>
		<path fill="#010101" d="M103.271,252.354v-1.773h1.118l0.753-0.754v-8.793l-0.753-0.754h-1.118v-1.772h6.413
			c3.667,0,5.539,1.359,5.539,3.911c0,2.186-1.336,3.473-4.008,3.813l3.4,4.275h2.139v1.847h-4.615v-1.773l-3.281-4.252h-1.846
			v3.498l0.753,0.754h1.652v1.773H103.271z M107.012,244.556h2.623c2.503,0,3.498-0.777,3.498-2.137
			c0-1.361-0.994-2.139-3.498-2.139h-2.623V244.556z"/>
		<path fill="#010101" d="M113.279,287.534l0.754-0.752v-2.502h1.846v5.027h-12.68v-1.773h1.895l0.753-0.752v-8.795l-0.753-0.752
			h-1.895v-1.773h12.583v5.15h-1.846v-2.625l-0.754-0.752h-5.441v4.227h2.017l0.753-0.754v-1.48h1.554v6.072h-1.554v-1.457
			l-0.753-0.754h-2.017v4.445H113.279z"/>
		<path fill="#010101" d="M112.623,324.489h0.51l0.973-9.693l-0.486-0.607h-2.137v-1.773h5.781v1.773h-1.215l-1.336,12.074h-3.328
			l-1.336-8.648l-1.312,8.648h-3.449l-1.336-12.074h-1.215v-1.773h5.903v1.773h-2.138l-0.486,0.607l0.972,9.693h0.511l1.238-8.527
			h2.648L112.623,324.489z"/>
	</g>
</g>
<g>
	<g>
		<path fill="#FFFFFF" d="M116.049,443.527c0,2.672-1.92,4.057-5.563,4.057h-7.287v-1.773h1.895l0.753-0.753v-8.794l-0.753-0.753
			h-1.895v-1.772h7.021c3.425,0,5.222,1.336,5.222,3.765c0,1.288-0.801,2.429-2.355,2.769
			C114.664,440.418,116.049,441.996,116.049,443.527z M113.426,437.503c0-1.263-0.996-1.992-3.28-1.992h-2.405v4.032h2.405
			C112.43,439.543,113.426,438.791,113.426,437.503z M107.741,445.811h2.696c2.502,0,3.596-0.85,3.596-2.283
			s-1.094-2.283-3.596-2.283h-2.696V445.811z"/>
		<path fill="#FFFFFF" d="M110,484.879c-3.887,0-6.341-3.207-6.341-7.264c0-4.082,2.454-7.264,6.341-7.264
			c3.886,0,6.365,3.182,6.365,7.264C116.365,481.672,113.887,484.879,110,484.879z M110,472.271c-2.794,0-4.203,2.405-4.203,5.345
			s1.409,5.32,4.203,5.32c2.792,0,4.226-2.381,4.226-5.32S112.793,472.271,110,472.271z"/>
		<path fill="#FFFFFF" d="M112.818,521.492l-5.782-11.271v8.745l0.753,0.753h1.166v1.773h-5.685v-1.773h1.19l0.753-0.753v-8.794
			l-0.753-0.753h-1.19v-1.772h4.567l5.15,10.42v-7.895l-0.754-0.753h-1.189v-1.772h5.684v1.772h-1.166l-0.752,0.753v11.32H112.818z"
			/>
		<path fill="#FFFFFF" d="M108.591,558.446h-5.806v-1.773h1.506l4.566-12.073h2.285l4.566,12.073h1.506v1.773h-5.951v-1.773h1.385
			l0.729-0.606l-0.826-2.236h-5.271l-0.802,2.236l0.729,0.606h1.385V558.446z M109.903,546.592l-1.968,5.466h3.985L109.903,546.592z
			"/>
		<path fill="#FFFFFF" d="M105.701,588.453c0,2.914,1.433,5.344,4.251,5.344c1.433,0,2.55-0.973,3.498-2.09v-1.141l-0.533-0.584
			h-1.822v-1.773h5.732v1.773h-0.875l-0.68,0.705v4.713h-1.822v-1.045l-0.34-0.243c-0.947,1.166-2.332,1.628-3.474,1.628
			c-3.668,0-6.097-3.23-6.097-7.287c0-4.058,2.429-7.24,6.34-7.24c1.239,0,2.477,0.584,3.133,1.434l0.34-0.146v-0.948h1.799v4.664
			h-1.434c-0.631-1.725-1.967-3.084-3.765-3.084C107.11,583.133,105.701,585.514,105.701,588.453z"/>
		<path fill="#FFFFFF" d="M103.271,632.354v-1.773h1.118l0.753-0.754v-8.793l-0.753-0.754h-1.118v-1.772h6.413
			c3.667,0,5.539,1.359,5.539,3.911c0,2.186-1.336,3.473-4.008,3.813l3.4,4.275h2.139v1.847h-4.615v-1.773l-3.281-4.252h-1.846
			v3.498l0.753,0.754h1.652v1.773H103.271z M107.012,624.556h2.623c2.503,0,3.498-0.777,3.498-2.137
			c0-1.361-0.994-2.139-3.498-2.139h-2.623V624.556z"/>
		<path fill="#FFFFFF" d="M113.279,667.534l0.754-0.752v-2.502h1.846v5.027h-12.68v-1.773h1.895l0.753-0.752v-8.795l-0.753-0.752
			h-1.895v-1.773h12.583v5.15h-1.846v-2.625l-0.754-0.752h-5.441v4.227h2.017l0.753-0.754v-1.48h1.554v6.072h-1.554v-1.457
			l-0.753-0.754h-2.017v4.445H113.279z"/>
		<path fill="#FFFFFF" d="M112.623,704.489h0.51l0.973-9.693l-0.486-0.607h-2.137v-1.773h5.781v1.773h-1.215l-1.336,12.074h-3.328
			l-1.336-8.648l-1.312,8.648h-3.449l-1.336-12.074h-1.215v-1.773h5.903v1.773h-2.138l-0.486,0.607l0.972,9.693h0.511l1.238-8.527
			h2.648L112.623,704.489z"/>
	</g>
</g>
</svg>
