<?xml version="1.0" encoding="utf-8"?>
<!-- Generator: Adobe Illustrator 16.0.0, SVG Export Plug-In . SVG Version: 6.00 Build 0)  -->
<!DOCTYPE svg PUBLIC "-//W3C//DTD SVG 1.1//EN" "http://www.w3.org/Graphics/SVG/1.1/DTD/svg11.dtd">
<svg version="1.1" id="Layer_1" xmlns="http://www.w3.org/2000/svg" xmlns:xlink="http://www.w3.org/1999/xlink" x="0px" y="0px"
	 width="500px" height="520px" viewBox="0 0 500 520" enable-background="new 0 0 500 520" xml:space="preserve">
<defs>
	<filter id="Adobe_OpacityMaskFilter" filterUnits="userSpaceOnUse" x="28.089" y="28.089" width="13.821" height="13.822">
		
			<feColorMatrix  type="matrix" values="-1 0 0 0 1  0 -1 0 0 1  0 0 -1 0 1  0 0 0 1 0" color-interpolation-filters="sRGB" result="source"/>
		<feFlood  style="flood-color:white;flood-opacity:1" result="back"/>
		<feBlend  in="source" in2="back" mode="normal"/>
	</filter>
</defs>
<mask maskUnits="userSpaceOnUse" x="28.089" y="28.089" width="13.821" height="13.822" id="SVGID_10_">
	<g filter="url(#Adobe_OpacityMaskFilter)">
		<polygon fill="#FFFFFF" points="31.179,43.75 43.763,31.179 38.824,26.247 26.238,38.819 		"/>
	</g>
</mask>
<g mask="url(#SVGID_10_)">
	
		<line fill="none" stroke="#FFFFFF" stroke-width="1.9642" stroke-miterlimit="10" x1="28.783" y1="28.783" x2="41.216" y2="41.217"/>
</g>
<g>
	
		<line fill="none" stroke="#FFFFFF" stroke-width="1.9642" stroke-miterlimit="10" x1="28.783" y1="41.216" x2="41.217" y2="28.783"/>
</g>
<g>
	
		<line fill="none" stroke="#FFFFFF" stroke-width="1.9642" stroke-miterlimit="10" x1="28.783" y1="41.216" x2="41.217" y2="28.783"/>
</g>
<g>
	<line fill="none" stroke="#FFFFFF" stroke-width="1.9642" stroke-miterlimit="10" x1="27.824" y1="105" x2="42.176" y2="105"/>
	
		<line fill="none" stroke="#FFFFFF" stroke-width="1.9642" stroke-miterlimit="10" x1="27.824" y1="99.628" x2="42.176" y2="99.628"/>
	
		<line fill="none" stroke="#FFFFFF" stroke-width="1.9642" stroke-miterlimit="10" x1="27.824" y1="110.372" x2="42.176" y2="110.372"/>
</g>
<g id="Icons">
	<path fill="#FFFFFF" d="M86.426,36.566H71.574c-0.557,0-1.007,0.451-1.007,1.007v14.853c0,0.555,0.451,1.007,1.007,1.007h14.853
		c0.555,0,1.006-0.452,1.006-1.007V37.574C87.433,37.017,86.982,36.566,86.426,36.566z M76.848,43.046
		c0.527-0.598,1.295-0.976,2.152-0.976c0.855,0,1.624,0.378,2.152,0.976c0.447,0.506,0.72,1.169,0.72,1.896
		c0,1.584-1.288,2.874-2.87,2.874c-1.584,0-2.873-1.289-2.873-2.874C76.128,44.216,76.4,43.554,76.848,43.046z M85.657,51.657
		H72.343v-8.609h2.417c-0.26,0.579-0.41,1.221-0.41,1.896c0,2.562,2.085,4.648,4.65,4.648s4.648-2.083,4.648-4.648
		c0-0.675-0.148-1.317-0.41-1.896h2.419V51.657z M85.657,40.211c0,0.448-0.363,0.81-0.811,0.81h-1.058
		c-0.449,0-0.811-0.362-0.811-0.81v-1.06c0-0.447,0.362-0.81,0.811-0.81h1.058c0.447,0,0.811,0.363,0.811,0.81V40.211z"/>
</g>
<g id="Icons_1_">
	<path fill="#FFFFFF" d="M83.75,21.422h-2.713c-0.321,0-0.679,0.422-0.679,0.987v1.959h3.392v2.792h-3.394v8.388h-3.203V27.16H74.25
		v-2.793h2.904v-1.644c0-2.358,1.637-4.275,3.883-4.275h2.713V21.422z"/>
</g>
<g id="Icons_2_">
	<path fill="#FFFFFF" d="M87.549,3.699c-0.631,0.277-1.306,0.466-2.015,0.551c0.725-0.434,1.281-1.121,1.543-1.941
		c-0.679,0.403-1.43,0.692-2.228,0.851c-0.643-0.68-1.554-1.107-2.561-1.107c-1.939,0-3.509,1.571-3.509,3.51
		c0,0.274,0.031,0.542,0.091,0.798c-2.915-0.146-5.501-1.543-7.231-3.665c-0.3,0.519-0.477,1.121-0.477,1.762
		c0,1.217,0.622,2.292,1.563,2.921c-0.574-0.02-1.115-0.177-1.59-0.44c0,0.015,0,0.031,0,0.044c0,1.699,1.208,3.116,2.813,3.439
		c-0.293,0.08-0.602,0.122-0.924,0.122c-0.225,0-0.445-0.02-0.66-0.061c0.448,1.395,1.742,2.407,3.277,2.435
		c-1.2,0.942-2.712,1.504-4.357,1.504c-0.283,0-0.561-0.019-0.835-0.051c1.552,0.998,3.396,1.576,5.379,1.576
		c6.451,0,9.979-5.346,9.979-9.98c0-0.151-0.004-0.303-0.009-0.455C86.484,5.018,87.078,4.401,87.549,3.699z"/>
</g>
<g>
	<defs>
		<filter id="Adobe_OpacityMaskFilter_1_" filterUnits="userSpaceOnUse" x="89.426" y="34.12" width="22.147" height="12.461">
			
				<feColorMatrix  type="matrix" values="-1 0 0 0 1  0 -1 0 0 1  0 0 -1 0 1  0 0 0 1 0" color-interpolation-filters="sRGB" result="source"/>
			<feFlood  style="flood-color:white;flood-opacity:1" result="back"/>
			<feBlend  in="source" in2="back" mode="normal"/>
		</filter>
	</defs>
	<mask maskUnits="userSpaceOnUse" x="89.426" y="34.12" width="22.147" height="12.461" id="SVGID_9_">
		<g filter="url(#Adobe_OpacityMaskFilter_1_)">
			<rect x="88.43" y="26.749" fill="#FFFFFF" width="24.14" height="8.673"/>
		</g>
	</mask>
	<polyline mask="url(#SVGID_9_)" fill="none" stroke="#FFFFFF" stroke-width="1.7087" stroke-miterlimit="10" points="
		110.786,34.452 106.041,45.727 94.96,45.727 90.213,34.452 	"/>
	<path fill="none" stroke="#FFFFFF" stroke-width="1.7087" stroke-miterlimit="10" d="M96.965,35.421v-2.694
		c0-1.952,1.582-3.534,3.534-3.534c1.951,0,3.533,1.583,3.533,3.534v2.694"/>
</g>
<g>
	<defs>
		<filter id="Adobe_OpacityMaskFilter_2_" filterUnits="userSpaceOnUse" x="91.717" y="11.081" width="17.565" height="10.176">
			
				<feColorMatrix  type="matrix" values="-1 0 0 0 1  0 -1 0 0 1  0 0 -1 0 1  0 0 0 1 0" color-interpolation-filters="sRGB" result="source"/>
			<feFlood  style="flood-color:white;flood-opacity:1" result="back"/>
			<feBlend  in="source" in2="back" mode="normal"/>
		</filter>
	</defs>
	<mask maskUnits="userSpaceOnUse" x="91.717" y="11.081" width="17.565" height="10.176" id="SVGID_8_">
		<g filter="url(#Adobe_OpacityMaskFilter_2_)">
			<rect x="90.819" y="-0.764" fill="#FFFFFF" width="19.503" height="13.972"/>
		</g>
	</mask>
	<g mask="url(#SVGID_8_)">
		<path fill="none" stroke="#FFFFFF" stroke-width="1.7087" stroke-miterlimit="10" d="M92.571,21.257
			c0-4.111,1.959-7.91,5.581-9.384"/>
		<path fill="none" stroke="#FFFFFF" stroke-width="1.7087" stroke-miterlimit="10" d="M108.428,21.257
			c0-4.111-1.959-7.91-5.581-9.384"/>
	</g>
	<path fill="none" stroke="#FFFFFF" stroke-width="1.7087" stroke-miterlimit="10" d="M97.482,8.796V6.808
		c0-1.706,1.383-3.089,3.089-3.089s3.089,1.383,3.089,3.089v1.75"/>
	<path fill="none" stroke="#FFFFFF" stroke-width="1.7087" stroke-miterlimit="10" d="M103.66,8.315v0.481
		c0,1.706-1.383,3.089-3.09,3.089c-1.705,0-3.088-1.383-3.088-3.089V8.033"/>
</g>
<defs>
	<filter id="Adobe_OpacityMaskFilter_3_" filterUnits="userSpaceOnUse" x="103.208" y="71" width="17.584" height="2.001">
		
			<feColorMatrix  type="matrix" values="-1 0 0 0 1  0 -1 0 0 1  0 0 -1 0 1  0 0 0 1 0" color-interpolation-filters="sRGB" result="source"/>
		<feFlood  style="flood-color:white;flood-opacity:1" result="back"/>
		<feBlend  in="source" in2="back" mode="normal"/>
	</filter>
</defs>
<mask maskUnits="userSpaceOnUse" x="103.208" y="71" width="17.584" height="2.001" id="SVGID_7_">
	<g filter="url(#Adobe_OpacityMaskFilter_3_)">
		<polygon fill="#FFFFFF" points="115.485,80.812 115.488,63.089 108.539,63.095 108.533,80.816 		"/>
	</g>
</mask>
<g mask="url(#SVGID_7_)">
	<line fill="none" stroke="#FFFFFF" stroke-width="2" stroke-miterlimit="10" x1="103.208" y1="72" x2="120.792" y2="72"/>
</g>
<g>
	<line fill="none" stroke="#FFFFFF" stroke-width="2" stroke-miterlimit="10" x1="111.999" y1="80.792" x2="112" y2="63.208"/>
</g>
<path fill="none" stroke="#FFFFFF" stroke-width="2" stroke-linejoin="bevel" stroke-miterlimit="10" d="M120.059,195.789
	l-2.788-2.788h-4.77l-2.84,2.839v2.008l0.646,0.646h-5.097l-0.646,0.65v2.138l0.812,0.818l-1.244,1.249v1.237l1.715,1.714h2.035
	l-3.347,3.346v1.445l-0.595,0.6c0,0.265,0,0.607,0,0.938l2.37,2.37h2.737l2.146-2.144h1.051l1.493-1.49h3.151l0.427-0.424v-0.512
	v-1.05l0.915-0.925v-6.088l-0.812-0.812l2.64-2.64v-3.126H120.059z"/>
<g>
	<defs>
		<filter id="Adobe_OpacityMaskFilter_4_" filterUnits="userSpaceOnUse" x="111.49" y="155.52" width="12.225" height="9.551">
			
				<feColorMatrix  type="matrix" values="-1 0 0 0 1  0 -1 0 0 1  0 0 -1 0 1  0 0 0 1 0" color-interpolation-filters="sRGB" result="source"/>
			<feFlood  style="flood-color:white;flood-opacity:1" result="back"/>
			<feBlend  in="source" in2="back" mode="normal"/>
		</filter>
	</defs>
	<mask maskUnits="userSpaceOnUse" x="111.49" y="155.52" width="12.225" height="9.551" id="SVGID_6_">
		<g filter="url(#Adobe_OpacityMaskFilter_4_)">
			<g>
				<polygon fill="#FFFFFF" points="110.893,158.524 110.127,157.413 113.478,155.199 114.253,156.315 				"/>
			</g>
		</g>
	</mask>
	<polyline mask="url(#SVGID_6_)" fill="none" stroke="#FFFFFF" stroke-width="2" stroke-miterlimit="10" points="111.961,156.401 
		122.713,162.148 122.714,164.07 120.51,164.07 	"/>
	<path fill="none" stroke="#FFFFFF" stroke-width="2" stroke-miterlimit="10" d="M109.087,151.771c0-1.583,1.285-2.867,2.874-2.867
		c1.584,0,2.863,1.284,2.863,2.867c0,0.837-0.23,1.607-1.197,2.286l-12.342,8.091v1.92h2.194"/>
	<polyline fill="none" stroke="#FFFFFF" stroke-width="2" stroke-miterlimit="10" points="117.958,162.476 117.959,171.096 
		105.993,171.096 105.993,162.476 	"/>
</g>
<g>
	<defs>
		<filter id="Adobe_OpacityMaskFilter_5_" filterUnits="userSpaceOnUse" x="103.032" y="237.469" width="14.438" height="9.882">
			
				<feColorMatrix  type="matrix" values="-1 0 0 0 1  0 -1 0 0 1  0 0 -1 0 1  0 0 0 1 0" color-interpolation-filters="sRGB" result="source"/>
			<feFlood  style="flood-color:white;flood-opacity:1" result="back"/>
			<feBlend  in="source" in2="back" mode="normal"/>
		</filter>
	</defs>
	<mask maskUnits="userSpaceOnUse" x="103.032" y="237.469" width="14.438" height="9.882" id="SVGID_1_">
		<g filter="url(#Adobe_OpacityMaskFilter_5_)">
			<rect x="101.203" y="246.158" fill="#FFFFFF" width="17.779" height="8.198"/>
		</g>
	</mask>
	<polyline mask="url(#SVGID_1_)" fill="none" stroke="#020202" stroke-width="1.9642" stroke-miterlimit="10" points="
		103.785,246.72 110.25,238.998 116.717,246.72 	"/>
	<g>
		
			<line fill="none" stroke="#020202" stroke-width="1.9642" stroke-miterlimit="10" x1="110.251" y1="247.17" x2="110.251" y2="260.002"/>
	</g>
</g>
<g>
	<line fill="none" stroke="#FFFFFF" stroke-width="2" stroke-miterlimit="10" x1="107.429" y1="122.355" x2="116.57" y2="122.355"/>
	<polyline fill="none" stroke="#FFFFFF" stroke-width="2" stroke-miterlimit="10" points="108.502,114.733 112,114.733 112,122.355 
			"/>
	<line fill="none" stroke="#FFFFFF" stroke-width="2" stroke-miterlimit="10" x1="112" y1="112.195" x2="112" y2="109.645"/>
</g>
</svg>
