<?xml version="1.0" encoding="utf-8"?>
<!-- Generator: Adobe Illustrator 16.0.0, SVG Export Plug-In . SVG Version: 6.00 Build 0)  -->
<!DOCTYPE svg PUBLIC "-//W3C//DTD SVG 1.1//EN" "http://www.w3.org/Graphics/SVG/1.1/DTD/svg11.dtd">
<svg version="1.1" id="Layer_1" xmlns="http://www.w3.org/2000/svg" xmlns:xlink="http://www.w3.org/1999/xlink" x="0px" y="0px"
	 width="500px" height="520px" viewBox="0 0 500 520" enable-background="new 0 0 500 520" xml:space="preserve">
<g>
	<g>
		<rect x="27.824" y="104.018" fill="#FFFFFF" width="14.352" height="1.964"/>
	</g>
	<g>
		<rect x="27.824" y="98.646" fill="#FFFFFF" width="14.352" height="1.964"/>
	</g>
	<g>
		<rect x="27.824" y="109.39" fill="#FFFFFF" width="14.352" height="1.964"/>
	</g>
</g>
<g id="Icons">
	<path fill="#FFFFFF" d="M86.426,36.566H71.574c-0.557,0-1.007,0.451-1.007,1.007v14.853c0,0.555,0.451,1.007,1.007,1.007h14.853
		c0.555,0,1.006-0.452,1.006-1.007V37.574C87.433,37.017,86.982,36.566,86.426,36.566z M76.848,43.046
		c0.527-0.598,1.295-0.976,2.152-0.976c0.855,0,1.624,0.378,2.152,0.976c0.447,0.506,0.72,1.169,0.72,1.896
		c0,1.584-1.288,2.874-2.87,2.874c-1.584,0-2.873-1.289-2.873-2.874C76.128,44.216,76.4,43.554,76.848,43.046z M85.657,51.657
		H72.343v-8.609h2.417c-0.26,0.579-0.41,1.221-0.41,1.896c0,2.562,2.085,4.648,4.65,4.648s4.648-2.083,4.648-4.648
		c0-0.675-0.148-1.317-0.41-1.896h2.419V51.657z M85.657,40.211c0,0.448-0.363,0.81-0.811,0.81h-1.058
		c-0.449,0-0.811-0.362-0.811-0.81v-1.06c0-0.447,0.362-0.81,0.811-0.81h1.058c0.447,0,0.811,0.363,0.811,0.81V40.211z"/>
</g>
<g id="Icons_1_">
	<path fill="#FFFFFF" d="M83.75,21.422h-2.713c-0.321,0-0.679,0.422-0.679,0.987v1.959h3.392v2.792h-3.394v8.388h-3.203V27.16H74.25
		v-2.793h2.904v-1.644c0-2.358,1.637-4.275,3.883-4.275h2.713V21.422z"/>
</g>
<g id="Icons_2_">
	<path fill="#FFFFFF" d="M87.549,3.699c-0.631,0.277-1.306,0.466-2.015,0.551c0.725-0.434,1.281-1.121,1.543-1.941
		c-0.679,0.403-1.43,0.692-2.228,0.851c-0.643-0.68-1.554-1.107-2.561-1.107c-1.939,0-3.509,1.571-3.509,3.51
		c0,0.274,0.031,0.542,0.091,0.798c-2.915-0.146-5.501-1.543-7.231-3.665c-0.3,0.519-0.477,1.121-0.477,1.762
		c0,1.217,0.622,2.292,1.563,2.921c-0.574-0.02-1.115-0.177-1.59-0.44c0,0.015,0,0.031,0,0.044c0,1.699,1.208,3.116,2.813,3.439
		c-0.293,0.08-0.602,0.122-0.924,0.122c-0.225,0-0.445-0.02-0.66-0.061c0.448,1.395,1.742,2.407,3.277,2.435
		c-1.2,0.942-2.712,1.504-4.357,1.504c-0.283,0-0.561-0.019-0.835-0.051c1.552,0.998,3.396,1.576,5.379,1.576
		c6.451,0,9.979-5.346,9.979-9.98c0-0.151-0.004-0.303-0.009-0.455C86.484,5.018,87.078,4.401,87.549,3.699z"/>
</g>
<g>
	<g>
		<path fill="#FFFFFF" d="M94.742,13.208c-1.906,1.968-3.026,4.8-3.026,8.049h1.709c0-3.55,1.501-6.523,3.985-8.049H94.742z"/>
		<path fill="#FFFFFF" d="M103.589,13.208c2.483,1.526,3.985,4.499,3.985,8.049h1.709c0-3.249-1.12-6.081-3.026-8.049H103.589z"/>
	</g>
	<path fill="#FFFFFF" d="M100.571,2.864c-2.174,0-3.943,1.769-3.943,3.944v1.225v0.763c0,2.174,1.769,3.943,3.942,3.943
		c2.175,0,3.945-1.769,3.945-3.943V8.558V8.315V6.808C104.515,4.633,102.746,2.864,100.571,2.864z M102.806,8.558v0.238
		c0,1.232-1.003,2.234-2.236,2.234c-1.231,0-2.233-1.002-2.233-2.234V8.033V6.808c0-1.232,1.002-2.235,2.234-2.235
		c1.232,0,2.235,1.002,2.235,2.235v1.507V8.558z"/>
</g>
<g>
	<path fill="#FFFFFF" d="M109.047,215.999h-2.737l-0.707-0.293l-2.37-2.37l-0.293-0.707v-0.938l0.29-0.704l0.305-0.308v-1.033
		l0.293-0.707l1.75-1.75l-0.438-0.181l-1.715-1.714l-0.293-0.708v-1.237l0.292-0.706l0.542-0.544l-0.111-0.112l-0.291-0.705v-2.138
		l0.291-0.705l0.646-0.65l0.709-0.295h3.451v-1.654l0.293-0.707l2.84-2.839l0.707-0.293h4.77l0.707,0.293l2.788,2.788l0.293,0.708
		l-0.001,3.125l-0.293,0.707l-1.933,1.933l0.105,0.105l0.293,0.707v6.088l-0.289,0.703l-0.626,0.633v1.151l-0.295,0.709
		l-0.427,0.424l-0.705,0.291h-2.738l-1.2,1.198l-0.707,0.292h-0.637l-1.854,1.852L109.047,215.999z M106.724,213.999h1.909
		l1.854-1.852l0.707-0.292h0.638l1.2-1.198l0.707-0.292h2.578v-0.986l0.289-0.703l0.626-0.633v-5.263l-0.519-0.519v-1.414
		l2.347-2.348l0.001-2.296l-2.202-2.202h-3.942l-2.254,2.253v1.18l0.353,0.353l-0.707,1.707h-4.681l-0.062,0.062v1.313l0.521,0.525
		l-0.001,1.41l-0.953,0.957v0.409l1.129,1.128h1.621l0.707,1.707l-3.054,3.053v1.031l-0.29,0.704l-0.305,0.308v0.112
		L106.724,213.999z"/>
</g>
<g>
	<g>
		<g>
			<polygon fill="#FFFFFF" points="120.51,163.07 120.51,165.07 123.714,165.07 123.712,161.548 114.104,156.413 112.202,157.664 
				121.713,162.748 121.713,163.07 			"/>
		</g>
	</g>
	<g>
		<path fill="#FFFFFF" d="M103.479,165.068h-3.194v-3.46l12.793-8.387c0.619-0.436,0.746-0.864,0.746-1.45
			c0-1.03-0.836-1.867-1.863-1.867c-1.033,0-1.874,0.837-1.874,1.867h-2c0-2.132,1.738-3.867,3.874-3.867
			c2.13,0,3.863,1.735,3.863,3.867c0,0.843-0.168,2.083-1.623,3.104l-11.917,7.812v0.38h1.194V165.068z"/>
	</g>
	<g>
		<polygon fill="#FFFFFF" points="118.959,172.096 104.993,172.096 104.993,162.476 106.993,162.476 106.993,170.096 
			116.959,170.096 116.958,162.476 118.958,162.476 		"/>
	</g>
</g>
<g>
	<polygon fill="#020202" points="105.536,246.158 110.25,240.528 114.965,246.158 117.388,246.158 117.47,246.09 110.25,237.468 
		103.032,246.09 103.114,246.158 	"/>
	<g>
		<g>
			<rect x="109.269" y="247.17" fill="#020202" width="1.964" height="12.832"/>
		</g>
	</g>
</g>
<g>
	<g>
		<rect x="107.429" y="121.355" fill="#FFFFFF" width="9.141" height="2"/>
	</g>
	<g>
		<polygon fill="#FFFFFF" points="113,122.355 111,122.355 111,115.733 108.502,115.733 108.502,113.733 113,113.733 		"/>
	</g>
	<g>
		<rect x="111" y="109.645" fill="#FFFFFF" width="2" height="2.55"/>
	</g>
</g>
<g>
	<path fill="#FFFFFF" d="M112.999,80.792h-2L111,63.208h2L112.999,80.792z M120.792,73h-5.22v-2h5.22V73z M108.428,73h-5.22v-2h5.22
		V73z"/>
</g>
<g>
	<g>
		<g>
			<path fill="#FFFFFF" d="M29.489,41.923l-1.414-1.414L40.51,28.076l1.414,1.414L29.489,41.923z M40.509,41.923l-3.691-3.691
				l1.414-1.414l3.691,3.691L40.509,41.923z M31.767,33.181l-3.691-3.691l1.414-1.414l3.691,3.691L31.767,33.181z"/>
		</g>
	</g>
</g>
<path fill="#FFFFFF" d="M104.887,35.421h-1.709v-2.694c0-1.478-1.202-2.68-2.679-2.68c-1.478,0-2.68,1.202-2.68,2.68v2.694H96.11
	v-2.694c0-2.42,1.969-4.389,4.389-4.389c2.419,0,4.388,1.969,4.388,4.389V35.421z M109.451,35.422l-3.978,9.451h-9.946l-3.979-9.451
	h-1.854l4.699,11.16h12.216l4.697-11.16H109.451z"/>
</svg>
